<svg id="icon-star-border" xmlns="http://www.w3.org/2000/svg" width="45" height="45" viewBox="0 0 45 45">
  <rect id="icon-area" width="45" height="45" fill="none"/>
  <path id="star-unselected" d="M16.62,1.626a1,1,0,0,1,1.759,0l4.671,8.636a1,1,0,0,0,.686.505l9.517,1.876A1,1,0,0,1,33.8,14.3l-6.644,7.257a1,1,0,0,0-.255.8l1.2,9.839a1,1,0,0,1-1.424,1.023l-8.741-4.178a1,1,0,0,0-.863,0L8.328,33.214A1,1,0,0,1,6.9,32.191l1.2-9.839a1,1,0,0,0-.255-.8L1.2,14.3a1,1,0,0,1,.544-1.656l9.517-1.876a1,1,0,0,0,.686-.505Z" transform="translate(4.5 5)" fill="#d9d9d9"/>
</svg>
