<svg width="89" height="97" viewBox="0 0 89 97" fill="none" xmlns="http://www.w3.org/2000/svg">
    <g filter="url(#filter0_i_1311_29378)">
        <path
            d="M86.2188 84.875H2.78125C1.24461 84.875 0 86.2315 0 87.9062V93.9688C0 95.6435 1.24461 97 2.78125 97H86.2188C87.7554 97 89 95.6435 89 93.9688V87.9062C89 86.2315 87.7554 84.875 86.2188 84.875ZM33.375 72.75L22.25 66.6875L33.375 60.625L38.9375 48.5L44.5 60.625L55.625 66.6875L44.5 72.75L41.7188 78.8125H77.875L62.8545 40.6131C61.7805 37.8837 61.6636 34.8195 62.526 32.0024L72.3125 0L39.7058 20.3075C35.5925 22.8692 32.3369 26.7952 30.413 31.5136L11.125 78.8125H36.1562L33.375 72.75ZM44.5 30.3125L47.2812 24.25L50.0625 30.3125L55.625 33.3438L50.0625 36.375L47.2812 42.4375L44.5 36.375L38.9375 33.3438L44.5 30.3125Z"
            fill="#F8F8FF" />
    </g>
    <defs>
        <filter id="filter0_i_1311_29378" x="0" y="0" width="89" height="101"
            filterUnits="userSpaceOnUse" color-interpolation-filters="sRGB">
            <feFlood flood-opacity="0" result="BackgroundImageFix" />
            <feBlend mode="normal" in="SourceGraphic" in2="BackgroundImageFix" result="shape" />
            <feColorMatrix in="SourceAlpha" type="matrix"
                values="0 0 0 0 0 0 0 0 0 0 0 0 0 0 0 0 0 0 127 0" result="hardAlpha" />
            <feOffset dy="4" />
            <feGaussianBlur stdDeviation="2" />
            <feComposite in2="hardAlpha" operator="arithmetic" k2="-1" k3="1" />
            <feColorMatrix type="matrix" values="0 0 0 0 0 0 0 0 0 0 0 0 0 0 0 0 0 0 0.25 0" />
            <feBlend mode="normal" in2="shape" result="effect1_innerShadow_1311_29378" />
        </filter>
    </defs>
</svg>
