<svg width="21" height="18" viewBox="0 0 21 18" fill="none" xmlns="http://www.w3.org/2000/svg">
    <path
        d="M2.97012 17.5265H18.0301C19.5701 17.5265 20.5301 15.8565 19.7601 14.5265L12.2301 1.51654C11.4601 0.186543 9.54012 0.186543 8.77012 1.51654L1.24012 14.5265C0.470121 15.8565 1.43012 17.5265 2.97012 17.5265ZM10.5001 10.5265C9.95012 10.5265 9.50012 10.0765 9.50012 9.52654V7.52654C9.50012 6.97654 9.95012 6.52654 10.5001 6.52654C11.0501 6.52654 11.5001 6.97654 11.5001 7.52654V9.52654C11.5001 10.0765 11.0501 10.5265 10.5001 10.5265ZM11.5001 14.5265H9.50012V12.5265H11.5001V14.5265Z"
        fill="#FFB053" />
</svg>
