<svg width="104" height="104" viewBox="0 0 104 104" fill="none" xmlns="http://www.w3.org/2000/svg">
    <path
        d="M40.4875 34.5214L34.985 29.0577L40.875 22.6252H64.125L71.2163 30.3752H83.5C87.7625 30.3752 91.25 33.8627 91.25 38.1252V84.6252C91.25 84.8189 91.2113 85.0127 91.1725 85.2452L83.5 77.5339V38.1252H67.8063L60.715 30.3752H44.285L40.4875 34.5214ZM85.3988 101.326L76.4088 92.3752H21.5C17.2375 92.3752 13.75 88.8877 13.75 84.6252V38.1252C13.75 35.8389 14.7963 33.7852 16.385 32.3514L8.63501 24.6014L14.1375 19.1377L90.8625 95.8627L85.3988 101.326ZM41.6113 57.5777C41.185 58.7789 40.875 60.0189 40.875 61.3752C40.875 67.8077 46.0675 73.0002 52.5 73.0002C53.8563 73.0002 55.0963 72.6902 56.2975 72.2639L41.6113 57.5777ZM68.6588 84.6252L62.1488 78.1152C59.32 79.7814 56.0263 80.7502 52.5 80.7502C41.805 80.7502 33.125 72.0702 33.125 61.3752C33.125 57.8489 34.0938 54.5552 35.76 51.7264L22.1588 38.1252H21.5V84.6252H68.6588ZM63.3888 57.4227L71.41 65.4439C71.72 64.1264 71.875 62.7702 71.875 61.3752C71.875 50.6802 63.195 42.0002 52.5 42.0002C51.105 42.0002 49.7488 42.1552 48.3925 42.4652L56.4138 50.4864C59.6688 51.6489 62.2263 54.2064 63.3888 57.4227Z"
        fill="#DFA8FD" />
</svg>
