<svg width="25" height="25" viewBox="0 0 25 25" fill="none" xmlns="http://www.w3.org/2000/svg">
    <g clip-path="url(#clip0_1045_12374)">
        <g clip-path="url(#clip1_1045_12374)">
            <mask id="path-1-inside-1_1045_12374" fill="white">
                <path
                    d="M9.49991 16.6962L5.32991 12.5262L3.90991 13.9362L9.49991 19.5262L21.4999 7.52621L20.0899 6.11621L9.49991 16.6962Z" />
            </mask>
            <path
                d="M9.49991 16.6962L5.32991 12.5262L3.90991 13.9362L9.49991 19.5262L21.4999 7.52621L20.0899 6.11621L9.49991 16.6962Z"
                fill="#DFA8FD" />
            <path
                d="M9.49991 16.6962L6.67149 19.5246L9.49858 22.3517L12.327 19.526L9.49991 16.6962ZM5.32991 12.5262L8.15834 9.69778L5.33989 6.87933L2.5115 9.68781L5.32991 12.5262ZM3.90991 13.9362L1.0915 11.0978L-1.75695 13.9262L1.08149 16.7646L3.90991 13.9362ZM9.49991 19.5262L6.67149 22.3546L9.49991 25.1831L12.3283 22.3546L9.49991 19.5262ZM21.4999 7.52621L24.3283 10.3546L27.1568 7.52621L24.3283 4.69778L21.4999 7.52621ZM20.0899 6.11621L22.9183 3.28778L20.0912 0.460692L17.2628 3.28645L20.0899 6.11621ZM12.3283 13.8678L8.15834 9.69778L2.50148 15.3546L6.67149 19.5246L12.3283 13.8678ZM2.5115 9.68781L1.0915 11.0978L6.72833 16.7746L8.14833 15.3646L2.5115 9.68781ZM1.08149 16.7646L6.67149 22.3546L12.3283 16.6978L6.73834 11.1078L1.08149 16.7646ZM12.3283 22.3546L24.3283 10.3546L18.6715 4.69778L6.67149 16.6978L12.3283 22.3546ZM24.3283 4.69778L22.9183 3.28778L17.2615 8.94464L18.6715 10.3546L24.3283 4.69778ZM17.2628 3.28645L6.67282 13.8664L12.327 19.526L22.917 8.94597L17.2628 3.28645Z"
                fill="#DFA8FD" mask="url(#path-1-inside-1_1045_12374)" />
        </g>
    </g>
    <defs>
        <clipPath id="clip0_1045_12374">
            <rect width="24" height="24" fill="white" transform="translate(0.5 0.526367)" />
        </clipPath>
        <clipPath id="clip1_1045_12374">
            <rect width="24" height="24" fill="white" transform="translate(0.5 0.526367)" />
        </clipPath>
    </defs>
</svg>
