<svg width="20" height="25" viewBox="0 0 20 25" fill="none" xmlns="http://www.w3.org/2000/svg">
<path d="M17.0001 8.33332H15.8334V5.99999C15.8334 2.77999 13.2201 0.166656 10.0001 0.166656C6.78008 0.166656 4.16675 2.77999 4.16675 5.99999V8.33332H3.00008C1.71675 8.33332 0.666748 9.38332 0.666748 10.6667V22.3333C0.666748 23.6167 1.71675 24.6667 3.00008 24.6667H17.0001C18.2834 24.6667 19.3334 23.6167 19.3334 22.3333V10.6667C19.3334 9.38332 18.2834 8.33332 17.0001 8.33332ZM6.50008 5.99999C6.50008 4.06332 8.06342 2.49999 10.0001 2.49999C11.9367 2.49999 13.5001 4.06332 13.5001 5.99999V8.33332H6.50008V5.99999ZM15.8334 22.3333H4.16675C3.52508 22.3333 3.00008 21.8083 3.00008 21.1667V11.8333C3.00008 11.1917 3.52508 10.6667 4.16675 10.6667H15.8334C16.4751 10.6667 17.0001 11.1917 17.0001 11.8333V21.1667C17.0001 21.8083 16.4751 22.3333 15.8334 22.3333ZM10.0001 18.8333C11.2834 18.8333 12.3334 17.7833 12.3334 16.5C12.3334 15.2167 11.2834 14.1667 10.0001 14.1667C8.71675 14.1667 7.66675 15.2167 7.66675 16.5C7.66675 17.7833 8.71675 18.8333 10.0001 18.8333Z" fill="#010101"/>
</svg>
