<svg width="16" height="26" viewBox="0 0 16 26" fill="none" xmlns="http://www.w3.org/2000/svg">
<path d="M13.0833 0.166656H3.74992C2.13992 0.166656 0.833252 1.47332 0.833252 3.08332V22.9167C0.833252 24.5267 2.13992 25.8333 3.74992 25.8333H13.0833C14.6933 25.8333 15.9999 24.5267 15.9999 22.9167V3.08332C15.9999 1.47332 14.6933 0.166656 13.0833 0.166656ZM8.41658 24.6667C7.44825 24.6667 6.66658 23.885 6.66658 22.9167C6.66658 21.9483 7.44825 21.1667 8.41658 21.1667C9.38492 21.1667 10.1666 21.9483 10.1666 22.9167C10.1666 23.885 9.38492 24.6667 8.41658 24.6667ZM13.6666 20H3.16659V3.66666H13.6666V20Z" fill="#010101"/>
</svg>
