<svg width="27" height="23" viewBox="0 0 27 23" fill="none" xmlns="http://www.w3.org/2000/svg">
<path d="M2.50008 3H23.5001V8.83333H25.8334V3C25.8334 1.71666 24.7834 0.666664 23.5001 0.666664H2.50008C1.21675 0.666664 0.166748 1.71666 0.166748 3V17C0.166748 18.2833 1.21675 19.3333 2.50008 19.3333H13.0001V17H2.50008V3Z" fill="#010101"/>
<path d="M16.5 9.99999L9.5 5.33333V14.6667L16.5 9.99999Z" fill="#010101"/>
<path d="M25.495 17.5017C25.53 17.1633 25.5416 16.825 25.5066 16.4983L26.755 15.5067C26.8717 15.4133 26.895 15.2617 26.825 15.1333L25.6233 13.045C25.5533 12.9167 25.4017 12.87 25.2617 12.9167L23.7683 13.5C23.5 13.3017 23.2083 13.1383 22.8933 13.01L22.66 11.4233C22.6367 11.2717 22.52 11.1667 22.3683 11.1667H19.9533C19.8133 11.1667 19.685 11.2717 19.6616 11.4117L19.4283 12.9983C19.125 13.1267 18.8333 13.3017 18.565 13.4883L17.0716 12.905C16.9316 12.8467 16.78 12.905 16.71 13.0333L15.5083 15.1217C15.4383 15.25 15.4617 15.4017 15.5783 15.495L16.8266 16.4983C16.7916 16.8367 16.78 17.175 16.815 17.5017L15.5666 18.4933C15.45 18.5867 15.4267 18.7383 15.4967 18.8667L16.6983 20.955C16.7683 21.0833 16.92 21.13 17.06 21.0833L18.5417 20.5C18.81 20.6983 19.1016 20.8617 19.4166 20.99L19.65 22.5767C19.6733 22.7167 19.79 22.8217 19.9417 22.8217H22.3567C22.4967 22.8217 22.625 22.7167 22.6483 22.5767L22.8816 20.99C23.185 20.8617 23.4766 20.6867 23.745 20.5L25.2383 21.0833C25.3783 21.1417 25.53 21.0833 25.6 20.955L26.8017 18.8667C26.8716 18.7383 26.8483 18.5867 26.7317 18.4933L25.495 17.5017ZM21.1666 18.75C20.1983 18.75 19.4166 17.9683 19.4166 17C19.4166 16.0317 20.1983 15.25 21.1666 15.25C22.135 15.25 22.9166 16.0317 22.9166 17C22.9166 17.9683 22.135 18.75 21.1666 18.75Z" fill="#010101"/>
</svg>
